<svg width="318" height="307" viewBox="0 0 318 307" fill="none" xmlns="http://www.w3.org/2000/svg">
<path d="M310.506 90.0328L131.805 0.674971C128.479 -1.47945 124.835 2.12089 122.059 3.16195C124.662 7.57201 126.628 152.265 137.444 148.665L309.074 246.987C311.214 245.31 316.853 244.587 316.434 240.77C313.875 236.36 322.84 86.5915 310.506 90.0328Z" fill="#2D368C"/>
<path d="M304.896 92.9102L126.209 3.55237C122.927 1.90402 120.266 3.23427 120.266 6.51651C122.869 11.1868 113.818 160.492 126.195 157.254L304.896 246.626C308.178 248.26 310.839 246.93 310.839 243.647C308.236 238.977 317.345 89.6424 304.896 92.9102Z" fill="#D5E5FD"/>
<path d="M126.21 7.71661C121.207 5.30193 126.079 123.303 124.431 124.157C123.679 128.856 303.103 213.587 304.896 216.189C309.899 218.589 305.012 100.516 306.675 99.7349C307.427 95.0501 127.93 10.3048 126.21 7.71661Z" fill="url(#paint0_linear)"/>
<path d="M182.542 64.1364L171.669 58.425V55.2729L182.542 60.9843V64.1364Z" fill="white"/>
<path d="M211.75 79.5065L188.008 67.0137V63.8616L211.75 76.3544V79.5065Z" fill="white"/>
<path d="M193.473 76.311L171.669 64.8304V61.6783L193.473 73.1444V76.311Z" fill="white"/>
<path d="M239.077 100.313L198.939 79.1884V76.0218L239.077 97.1467V100.313Z" fill="white"/>
<path d="M193.473 82.7164L171.669 71.2358V68.0837L193.473 79.5643V82.7164Z" fill="white"/>
<path d="M211.75 92.3318L198.939 85.5938V82.4417L211.75 89.1797V92.3318Z" fill="#FFDD9D"/>
<path d="M257.354 109.929L244.557 103.191V100.024L257.354 106.762V109.929Z" fill="#FFDD9D"/>
<path d="M292.895 141.45L271.885 130.388V127.236L292.895 138.283V141.45Z" fill="#FFDD9D"/>
<path d="M276.483 139.223L263.687 132.485V129.333L276.483 136.071V139.223Z" fill="white"/>
<path d="M182.542 83.3671L171.669 77.6557V74.4891L182.542 80.215V83.3671Z" fill="white"/>
<path d="M266.42 127.511L188.008 86.2445V83.0923L266.42 124.359V127.511Z" fill="white"/>
<path d="M182.542 89.7725L171.669 84.0612V80.9091L182.542 86.6204V89.7725Z" fill="white"/>
<path d="M258.222 129.608L188.008 92.6499V89.4978L258.222 126.455V129.608Z" fill="white"/>
<path d="M287.429 132.152L217.215 95.2091V92.057L287.429 129V132.152Z" fill="white"/>
<path d="M193.473 101.947L171.669 90.4666V87.3145L193.473 98.7806V101.947Z" fill="white"/>
<path d="M239.077 125.949L198.939 104.825V101.658L239.077 122.783V125.949Z" fill="white"/>
<path d="M165.668 55.2729L163.008 53.8703V50.7038L165.668 52.1063V55.2729Z" fill="#FFDD9D"/>
<path d="M165.668 61.6783L163.008 60.2758V57.1237L165.668 58.5262V61.6783Z" fill="#FFDD9D"/>
<path d="M165.668 68.0837L163.008 66.6812V63.5291L165.668 64.9316V68.0837Z" fill="#FFDD9D"/>
<path d="M165.668 74.5036L163.008 73.0866V69.9345L165.668 71.3371V74.5036Z" fill="#FFDD9D"/>
<path d="M165.668 80.909L163.008 79.5065V76.3399L165.668 77.7425V80.909Z" fill="#FFDD9D"/>
<path d="M165.668 87.3144L163.008 85.9119V82.7598L165.668 84.1623V87.3144Z" fill="#FFDD9D"/>
<path d="M188.008 108.15L177.135 102.424V99.2722L188.008 104.984V108.15Z" fill="white"/>
<path d="M217.215 123.506L193.473 111.013V107.861L217.215 120.354V123.506Z" fill="white"/>
<path d="M188.008 114.556L177.135 108.83V105.678L188.008 111.389V114.556Z" fill="white"/>
<path d="M244.543 144.313L193.473 117.433V114.266L244.543 141.146V144.313Z" fill="#FFDD9D"/>
<path d="M188.008 120.961L177.135 115.235V112.083L188.008 117.809V120.961Z" fill="white"/>
<path d="M271.885 165.105L193.473 123.838V120.686L271.885 161.953V165.105Z" fill="white"/>
<path d="M188.008 127.366L177.135 121.655V118.488L188.008 124.214V127.366Z" fill="white"/>
<path d="M244.543 157.123L193.473 130.244V127.092L244.543 153.971V157.123Z" fill="white"/>
<path d="M188.008 133.786L177.135 128.06V124.908L188.008 130.62V133.786Z" fill="white"/>
<path d="M228.146 154.911L193.473 136.664V133.497L228.146 151.745V154.911Z" fill="white"/>
<path d="M188.008 140.192L177.135 134.466V131.314L188.008 137.025V140.192Z" fill="white"/>
<path d="M209.002 151.239L193.473 143.069V139.903L209.002 148.086V151.239Z" fill="white"/>
<path d="M260.086 136.996L244.557 128.827V125.66L260.086 133.844V136.996Z" fill="#FFDD9D"/>
<path d="M281.096 148.058L265.552 139.874V136.721L281.096 144.891V148.058Z" fill="white"/>
<path d="M292.172 175.776L276.643 167.606V164.44L292.172 172.624V175.776Z" fill="#FFDD9D"/>
<path d="M265.552 168.185L250.023 160.001V156.849L265.552 165.018V168.185Z" fill="white"/>
<path d="M265.552 155.359L250.023 147.19V144.023L265.552 152.207V155.359Z" fill="white"/>
<path d="M286.562 166.421L271.018 158.237V155.085L286.562 163.254V166.421Z" fill="white"/>
<path d="M165.668 96.3948L163.008 94.9923V91.8257L165.668 93.2283V96.3948Z" fill="#FFDD9D"/>
<path d="M165.668 102.8L163.008 101.398V98.2456L165.668 99.6481V102.8Z" fill="#FFDD9D"/>
<path d="M165.668 109.206L163.008 107.803V104.651L165.668 106.054V109.206Z" fill="#FFDD9D"/>
<path d="M165.668 115.626L163.008 114.223V111.056L165.668 112.459V115.626Z" fill="#FFDD9D"/>
<path d="M165.668 122.031L163.008 120.628V117.476L165.668 118.879V122.031Z" fill="#FFDD9D"/>
<path d="M165.668 128.436L163.008 127.034V123.882L165.668 125.284V128.436Z" fill="#FFDD9D"/>
<path d="M281.963 116.464L217.215 82.3839V79.2318L281.963 113.298V116.464Z" fill="#FFDD9D"/>
<path d="M284.696 184.668L233.612 157.789V154.622L284.696 181.502V184.668Z" fill="white"/>
<path d="M143.748 48.5638L138.211 45.6431V39.2376L143.748 42.1584V48.5638Z" fill="#FFDD9D"/>
<path d="M156.443 53.6101L146.958 48.6216V45.4695L156.443 50.458V53.6101Z" fill="#FFDD9D"/>
<path d="M143.748 61.3892L138.211 58.4684V52.0485L143.748 54.9693V61.3892Z" fill="#FFDD9D"/>
<path d="M156.443 66.4354L146.958 61.447V58.2804L156.443 63.2688V66.4354Z" fill="#FFDD9D"/>
<path d="M143.748 74.2L138.211 71.2792V64.8738L143.748 67.7946V74.2Z" fill="#FFDD9D"/>
<path d="M156.443 79.2462L146.958 74.2578V71.1057L156.443 76.0941V79.2462Z" fill="#FFDD9D"/>
<path d="M143.748 87.0253L138.211 84.0901V77.6846L143.748 80.6054V87.0253Z" fill="#FFDD9D"/>
<path d="M156.443 92.0715L146.958 87.0831V83.9165L156.443 88.905V92.0715Z" fill="#FFDD9D"/>
<path d="M143.748 99.8361L138.211 96.9153V90.5099L143.748 93.4307V99.8361Z" fill="#FFDD9D"/>
<path d="M156.443 104.882L146.958 99.8939V96.7418L156.443 101.73V104.882Z" fill="#FFDD9D"/>
<path d="M310.896 235.507C298.375 241.001 129.448 142.317 117.866 152.005L7.52805 203.769H0.298453C0.775607 206.878 -1.42219 214.049 2.75652 215.553L181.429 304.911C183.301 305.727 185.322 306.147 187.364 306.147C189.407 306.147 191.427 305.727 193.3 304.911L308.482 247.32C310.144 246.481 310.954 245.382 310.925 244.284C310.896 244.356 310.896 235.507 310.896 235.507Z" fill="#2D368C"/>
<path d="M308.438 232.485L129.737 143.141C127.855 142.325 125.825 141.904 123.773 141.904C121.721 141.904 119.691 142.325 117.808 143.141C120.555 145.18 -16.6622 202.945 2.64078 206.675C11.3163 207.369 186.027 306.444 193.198 296.047C190.509 293.994 327.756 236.215 308.438 232.485Z" fill="#F2F7FE"/>
<path d="M232.036 224.113L220.773 218.474L209.509 224.113L220.773 229.752L232.036 224.113ZM82.2824 194.978L149.142 228.451L160.405 222.812L93.5461 189.411L82.2824 194.978ZM213.514 214.772L202.236 209.133L184.957 217.809L166.42 208.54L155.157 214.179L184.957 229.072L213.514 214.772ZM214.757 232.687L203.494 227.048L192.23 232.687L203.494 238.312L214.757 232.687ZM250.573 233.309L239.309 227.67L228.031 233.309L239.309 238.948L250.573 233.309ZM238.051 221.033L249.387 215.437L238.124 209.798L226.86 215.437L238.051 221.033ZM99.5611 186.331L110.825 191.956L122.146 186.345L110.825 180.735L99.5611 186.331ZM233.294 241.941L222.03 236.302L210.752 241.941L222.03 247.566L233.294 241.941ZM118.098 195.614L129.361 201.238L140.625 195.614L129.361 189.975L118.098 195.614ZM116.84 177.699L128.104 183.338L139.382 177.699L128.104 172.06L116.84 177.699ZM256.617 230.301L267.881 224.662L256.617 219.023L245.353 224.662L256.617 230.301ZM195.006 205.504L183.728 199.865L172.464 205.504L183.728 211.143L195.006 205.504ZM153.957 196.236L165.235 201.875L176.498 196.236L165.235 190.596L153.957 196.236ZM159.22 204.911L147.956 199.272L136.678 204.911L147.956 210.536L159.22 204.911ZM135.434 186.996L146.698 192.635L157.962 186.996L146.698 181.357L135.434 186.996ZM219.572 211.794L230.851 206.155L219.572 200.515L208.309 206.155L219.572 211.794ZM212.068 259.885L223.332 265.524L234.595 259.885L223.332 254.26L212.068 259.885ZM186.215 235.68L174.937 241.305L186.215 246.944L197.479 241.305L186.215 235.68ZM204.737 244.949L193.474 250.573L204.737 256.212L216.015 250.573L204.737 244.949ZM167.678 226.426L156.415 232.051L167.678 237.69L178.942 232.051L167.678 226.426ZM200.934 202.496L212.198 196.857L200.934 191.218L189.656 196.857L200.934 202.496ZM75.0094 180.085L63.7457 185.709L75.0094 191.348L86.2875 185.709L75.0094 180.085ZM246.568 242.577L257.831 248.216L269.11 242.577L257.831 236.938L246.568 242.577ZM229.217 251.253L240.48 256.877L251.759 251.253L240.48 245.614L229.217 251.253ZM275.052 228.32L263.774 233.96L275.052 239.599L286.316 233.96L275.052 228.32ZM138.051 159.813L126.788 154.174L115.51 159.813L126.788 165.452L138.051 159.813ZM163.847 183.989L175.11 178.35L163.847 172.71L152.583 178.35L163.847 183.989ZM182.383 193.257L193.647 187.618L182.383 181.979L171.12 187.618L182.383 193.257ZM145.31 174.72L156.588 169.081L145.31 163.442L134.046 169.081L145.31 174.72ZM103.494 177.106L92.2158 171.467L80.9521 177.106L92.2158 182.731L103.494 177.106ZM120.773 168.431L109.509 162.791L98.2308 168.431L109.509 174.07L120.773 168.431ZM153.696 241.146C147.652 239.584 109.972 215.336 103.841 220.469L79.1881 232.788C76.8457 233.96 76.8457 235.868 79.1881 237.039C85.2465 238.615 122.913 262.849 129.043 257.716L153.769 245.353C156.111 244.226 156.111 242.331 153.769 241.146H153.696Z" fill="url(#paint1_linear)"/>
<path style="mix-blend-mode:multiply" d="M308.438 232.485C299.083 231.617 125.718 132.933 117.808 143.141L2.69874 200.718C-0.583499 202.366 -0.583499 205.056 2.69874 206.661L61.8513 236.244H310.737C311.243 234.928 310.477 233.511 308.438 232.485Z" fill="url(#paint2_linear)"/>
<path style="mix-blend-mode:multiply" d="M152.25 209.148H110.651V215.553H163.08V214.107L152.25 209.148Z" fill="url(#paint3_linear)"/>
<path d="M147.638 210.969C147.508 209.871 151.542 209.364 152.135 208.989C152.727 208.613 152.93 209.74 152.51 210.03C151.542 210.594 146.886 214.541 147.638 210.969Z" fill="#0983E2"/>
<path d="M161.302 134.336L162.082 136.895C162.082 136.895 153.147 142.173 148.549 144.125L146.886 138.457L160.275 134.003L161.302 134.336Z" fill="#0983E2"/>
<path d="M160.275 134.061L169.37 122.103L170.469 122.797C169.919 125.993 165.524 134.365 162.083 136.895L160.275 134.061Z" fill="#0983E2"/>
<path d="M170.469 122.797C170.725 122.636 170.945 122.422 171.113 122.17C171.281 121.917 171.394 121.633 171.444 121.334C171.495 121.035 171.482 120.729 171.406 120.435C171.33 120.142 171.193 119.868 171.004 119.631L172.016 117.78L171.785 117.274L169.225 120.325V122.306L170.469 122.797Z" fill="#F4ACC8"/>
<path d="M163.08 215.553C163.441 215.293 168.863 215.278 168.603 214.338C168.777 213.63 163.195 213.514 162.906 213.326C162.024 213.182 162.371 215.712 163.08 215.553Z" fill="#0983E2"/>
<path d="M158.742 134.871C159.017 136.765 155.85 137.329 154.231 136.317L151.7 133.425L152.149 130.533L156.226 129.636L158.742 134.871Z" fill="#F4ACC8"/>
<path d="M156.342 136.649L156.92 141.406L153.103 141.117L153.624 135.319L156.342 136.649Z" fill="#F4ACC8"/>
<path d="M156.631 129.29C156.357 130.244 155.504 131.791 156.053 132.774C156.268 133.104 156.403 133.48 156.449 133.871C156.494 134.263 156.447 134.659 156.313 135.03C153.219 140.091 148.794 131.01 153.262 129.391C154.512 129.098 155.729 128.677 156.892 128.133L156.631 129.29Z" fill="#37384F"/>
<path d="M155.286 188.138L149.069 210.738C145.512 214.151 148.809 184.524 149.806 185.521L155.286 188.138Z" fill="#37384F"/>
<path d="M149.821 186.114C148.838 179.073 147.652 170.845 148.751 164.541L157.355 165.221L155.272 187.965L154.781 189.584L149.821 186.114Z" fill="#37384F"/>
<path d="M162.993 187.3C162.328 187.387 165.451 217.462 162.401 213.991C160.535 204.26 155.836 192.303 157.065 185.941L162.993 187.3Z" fill="#4C4E6E"/>
<path d="M157.224 186.519C154.203 180.113 152.893 173.035 153.421 165.972L161.865 164.382L162.95 187.17L162.82 188.861L157.224 186.519Z" fill="#4C4E6E"/>
<path d="M162.299 157.977L162.125 166.377C160.68 169.457 149.112 167.491 148.751 164.541L150.052 153.928L162.299 157.977Z" fill="#0983E2"/>
<path d="M149.85 155.562C148.404 151.224 145.7 140.293 146.958 138.514C150.371 137.069 159.205 140.076 163.673 143.647L162.372 157.977L149.85 155.562Z" fill="#0983E2"/>
<path d="M168.415 157.196C168.081 157.518 167.68 157.762 167.239 157.91C166.799 158.057 166.332 158.105 165.871 158.049C166.348 158.512 154.708 142.823 163.586 143.59L168.661 156.111L168.415 157.196Z" fill="#0983E2"/>
<path d="M166.449 154.492L174.777 141.985L175.934 142.606C175.572 145.845 171.697 154.405 168.43 157.196L166.449 154.492Z" fill="#0983E2"/>
<path d="M175.934 142.606C175.952 140.903 176.265 139.215 176.86 137.618C176.268 137.546 175.671 137.704 175.192 138.059C174.713 138.414 174.389 138.939 174.286 139.527L174.662 142.158L175.934 142.606Z" fill="#F4ACC8"/>
<defs>
<linearGradient id="paint0_linear" x1="293.228" y1="197.797" x2="129.217" y2="16.5223" gradientUnits="userSpaceOnUse">
<stop stop-color="#F49D5B"/>
<stop offset="1" stop-color="#F4C15B"/>
</linearGradient>
<linearGradient id="paint1_linear" x1="175.067" y1="158.844" x2="175.067" y2="264.873" gradientUnits="userSpaceOnUse">
<stop stop-color="#E3EEFE"/>
<stop offset="0.97" stop-color="#BDD5F8"/>
</linearGradient>
<linearGradient id="paint2_linear" x1="8.62701" y1="189.31" x2="298.288" y2="189.31" gradientUnits="userSpaceOnUse">
<stop stop-color="white"/>
<stop offset="1" stop-color="#6597E6"/>
</linearGradient>
<linearGradient id="paint3_linear" x1="4935.69" y1="1149.85" x2="6708.32" y2="1149.85" gradientUnits="userSpaceOnUse">
<stop stop-color="white"/>
<stop offset="1" stop-color="#6597E6"/>
</linearGradient>
</defs>
</svg>
