<svg width="131" height="371" viewBox="0 0 131 371" fill="none" xmlns="http://www.w3.org/2000/svg">
<g clip-path="url(#clip0)">
<path d="M113.74 24.63C113.74 29.7712 117.367 32.108 121.814 29.888C124.187 28.5019 126.167 26.536 127.569 24.1751C128.972 21.8143 129.75 19.1361 129.83 16.3924C129.83 11.3097 126.202 8.91437 121.814 11.1344C119.431 12.5133 117.438 14.4761 116.026 16.8375C114.613 19.1988 113.826 21.8807 113.74 24.63Z" fill="white"/>
<path d="M88.8739 37.0738C88.8739 42.1565 92.4429 44.4934 96.8895 42.3318C99.2404 40.9739 101.212 39.0477 102.623 36.7304C104.033 34.4131 104.838 31.779 104.964 29.0699C104.964 23.9288 101.336 21.5919 96.8895 23.8119C94.5351 25.1603 92.5636 27.0856 91.1611 29.406C89.7587 31.7264 88.9715 34.3653 88.8739 37.0738Z" fill="white"/>
<path d="M62.7222 50.1022C62.7222 55.1849 66.3497 57.5218 70.7378 55.3602C73.0887 54.0022 75.0601 52.0761 76.4709 49.7588C77.8817 47.4415 78.6867 44.8073 78.812 42.0983C78.812 36.9571 75.1844 34.6203 70.7378 36.8403C68.3943 38.2013 66.4316 40.1295 65.0307 42.4472C63.6299 44.7649 62.836 47.3975 62.7222 50.1022Z" fill="white"/>
<path d="M37.8561 62.4877C37.8561 67.5704 41.4251 69.9658 45.8718 67.7457C48.2153 66.3847 50.178 64.4565 51.5788 62.1388C52.9797 59.8211 53.7736 57.1885 53.8874 54.4838C53.8874 49.3427 50.3184 47.0058 45.8718 49.2258C43.5246 50.5826 41.559 52.5099 40.1576 54.8285C38.7563 57.1471 37.9646 59.7817 37.8561 62.4877Z" fill="white"/>
<path d="M12.9314 74.8148C12.9314 79.956 16.5589 82.2928 21.0056 80.0728C23.3455 78.7077 25.3053 76.7785 26.7057 74.4617C28.106 72.1449 28.9021 69.5144 29.0212 66.8109C29.0212 61.7282 25.3937 59.3329 21.0056 61.5529C18.3844 62.5662 16.1718 64.4157 14.7118 66.8139C13.2517 69.2122 12.6258 72.0248 12.9314 74.8148Z" fill="#F5E48C"/>
<path d="M113.74 68.0961C113.74 73.2373 117.367 75.5742 121.814 73.3541C124.154 71.989 126.114 70.0598 127.514 67.743C128.915 65.4262 129.711 62.7957 129.83 60.0922C129.83 55.0095 126.202 52.6142 121.814 54.8342C119.463 56.1922 117.492 58.1183 116.081 60.4356C114.67 62.7529 113.865 65.3871 113.74 68.0961Z" fill="white"/>
<path d="M88.8739 80.6569C88.8739 85.7981 92.4429 88.135 96.8895 85.9149C99.2512 84.5695 101.231 82.6464 102.644 80.3264C104.056 78.0065 104.855 75.3659 104.964 72.653C104.964 67.5703 101.336 65.2334 96.8895 67.395C94.546 68.756 92.5833 70.6842 91.1825 73.0019C89.7816 75.3196 88.9877 77.9522 88.8739 80.6569Z" fill="white"/>
<path d="M62.7222 93.5099C62.7222 98.651 66.3497 100.988 70.7378 98.7679C73.0995 97.4224 75.0797 95.4993 76.4921 93.1794C77.9046 90.8594 78.7029 88.2188 78.812 85.506C78.812 80.4233 75.1844 78.0864 70.7378 80.248C68.4014 81.6171 66.4445 83.5473 65.0447 85.8633C63.6449 88.1792 62.8465 90.8076 62.7222 93.5099Z" fill="white"/>
<path d="M37.3875 105.428C37.3875 110.569 40.9565 112.906 45.4031 110.686C47.7648 109.341 49.745 107.417 51.1574 105.097C52.5699 102.777 53.3682 100.137 53.4772 97.4241C53.4772 92.3413 49.8497 90.0044 45.4031 92.1661C43.0595 93.527 41.0968 95.4553 39.696 97.773C38.2952 100.091 37.5012 102.723 37.3875 105.428Z" fill="#F5E48C"/>
<path d="M12.5197 117.872C12.4034 118.921 12.5738 119.982 13.0129 120.942C13.4519 121.902 14.1432 122.725 15.0133 123.325C15.8834 123.924 16.8998 124.276 17.9545 124.345C19.0092 124.414 20.0628 124.196 21.0034 123.714C23.3434 122.349 25.3032 120.42 26.7035 118.103C28.1038 115.786 28.9 113.156 29.0191 110.453C29.0191 105.311 25.3916 102.974 21.0034 105.195C18.6315 106.419 16.6093 108.225 15.1257 110.442C13.642 112.659 12.7455 115.215 12.5197 117.872Z" fill="#F5E48C"/>
<path d="M113.74 111.562C113.74 116.703 117.367 119.04 121.814 116.82C124.154 115.455 126.114 113.526 127.514 111.209C128.915 108.892 129.711 106.262 129.83 103.558C129.83 98.4173 126.202 96.0804 121.814 98.3004C119.46 99.6542 117.485 101.579 116.074 103.898C114.663 106.216 113.86 108.852 113.74 111.562Z" fill="white"/>
<path d="M88.8739 123.948C88.8739 129.089 92.4429 131.426 96.8895 129.206C99.2768 127.831 101.272 125.869 102.685 123.507C104.099 121.145 104.883 118.461 104.964 115.71C104.964 110.628 101.336 108.232 96.8895 110.452C94.5132 111.834 92.5297 113.799 91.1269 116.161C89.7242 118.523 88.9487 121.203 88.8739 123.948Z" fill="white"/>
<path d="M62.7222 136.976C62.7222 140.189 65.121 145.039 70.7378 142.234C73.0923 140.88 75.0666 138.955 76.4779 136.637C77.8893 134.319 78.6921 131.683 78.812 128.972C78.812 123.89 75.1844 121.494 70.7378 123.714C68.4014 125.084 66.4445 127.014 65.0447 129.33C63.6449 131.646 62.8465 134.274 62.7222 136.976Z" fill="#F5E48C"/>
<path d="M37.3875 148.894C37.3875 154.036 40.9565 156.372 45.4031 154.152C47.7829 152.922 49.8103 151.108 51.2944 148.88C52.7785 146.652 53.6706 144.083 53.8868 141.416C53.8868 136.275 50.3178 133.938 45.8711 136.158C43.4843 137.38 41.451 139.192 39.9657 141.421C38.4804 143.651 37.5927 146.224 37.3875 148.894Z" fill="#F5E48C"/>
<path d="M12.5214 161.338C12.5214 166.421 16.0904 168.758 20.537 166.596C22.8806 165.235 24.8433 163.307 26.2441 160.989C27.645 158.672 28.4389 156.039 28.5527 153.334C28.5527 148.193 24.9837 145.856 20.537 148.076C18.1826 149.425 16.2111 151.35 14.8086 153.67C13.4062 155.991 12.619 158.63 12.5214 161.338Z" fill="#F5E48C"/>
<path d="M127.666 287.758L38.9086 293.601C37.7731 293.684 36.6707 294.021 35.6829 294.586C34.695 295.152 33.8469 295.931 33.2011 296.868C32.5554 297.804 32.1284 298.873 31.9517 299.997C31.775 301.12 31.8531 302.268 32.1802 303.357L35.5737 314.516L49.9667 356.171L81.7367 336.249L128.543 315.918C130.298 306.579 129.999 296.971 127.666 287.758Z" fill="#37384F"/>
<path d="M130.999 316.444L128.717 291.147L76.0596 298.333L23.4022 312.997C20.9452 314.166 18.9909 316.179 17.8955 318.667C16.8 321.154 16.6364 323.953 17.4343 326.551L19.5406 333.795L29.7211 365.402L51.4861 354.477C50.667 351.614 49.2043 344.136 48.2682 340.748C86.006 341.916 131.818 335.782 130.999 316.444Z" fill="#4C4E6E"/>
<path d="M83.3734 276.834L40.0188 302.072L12.1104 285.947L55.465 260.767L83.3734 276.834Z" fill="white"/>
<path d="M55.4658 260.767L12.1112 285.947L0 254.75L43.3546 229.511L55.4658 260.767Z" fill="#D5E5FD"/>
<path d="M4.79685 256.386L41.3645 235.12L50.6673 259.073L14.0997 280.397L4.79685 256.386Z" fill="#37384F"/>
<path d="M79.2189 265.441L76.118 298.391C81.9688 310.485 127.488 302.773 128.775 291.206L123.685 249.55L79.2189 265.441Z" fill="#80EAEA"/>
<path d="M69.6829 196.853C69.6829 199.774 77.874 201.761 82.5547 198.139L87.6449 192.296L89.8097 177.223L81.9696 168.402L66.5819 174.244L69.6829 196.853Z" fill="#F3ABC7"/>
<path d="M80.0974 196.912L83.2569 215.373L97.3574 209.998L88.8152 188.791L80.0974 196.912Z" fill="#F3ABC7"/>
<path d="M64.8284 173.952L71.0302 178.801C72.7293 180.143 73.841 182.09 74.1312 184.234L74.4237 186.454C74.7536 188.552 75.8603 190.449 77.5247 191.771L78.0512 192.238C79.534 193.356 81.3417 193.961 83.2 193.961C85.0583 193.961 86.8659 193.356 88.3487 192.238C89.3479 191.512 90.1751 190.576 90.7716 189.496C91.3682 188.416 91.7195 187.218 91.8007 185.987V180.145C91.8034 178.946 91.5549 177.761 91.0713 176.664C90.5876 175.567 89.8794 174.584 88.9923 173.776L84.1946 169.395C83.1156 168.41 81.797 167.724 80.3701 167.406C78.9432 167.089 77.4578 167.15 76.0619 167.584L65.5305 170.739L61.3764 171.147L64.8284 173.952Z" fill="#37384F"/>
<path d="M124.388 261.06C125.617 243.533 124.388 198.957 117.777 193.465C103.442 191.771 73.0182 212.16 59.8538 230.329L83.2571 282.15L124.388 261.06Z" fill="#80EAEA"/>
<path d="M82.7891 292.666C82.8573 270.056 81.7833 247.457 79.5711 224.955C76.2198 223.162 72.3079 222.72 68.6402 223.72C64.9726 224.72 61.8281 227.085 59.8538 230.329L66.6408 282.559L82.7891 292.666Z" fill="#9BF4F4"/>
<path d="M69.6827 280.047L37.3276 278.002L38.7903 283.202C50.4919 290.797 71.4379 296.639 82.7885 292.666L69.6827 280.047Z" fill="#9BF4F4"/>
<path d="M38.7913 283.202L30.1321 285.305L24.2813 289.161L23.8717 285.655C23.8717 281.916 25.2759 278.236 29.7226 277.944H37.3286L38.7913 283.202Z" fill="#F3ABC7"/>
</g>
<defs>
<clipPath id="clip0">
<rect width="131" height="371" fill="white"/>
</clipPath>
</defs>
</svg>
