<svg width="286" height="270" viewBox="0 0 286 270" fill="none" xmlns="http://www.w3.org/2000/svg">
<path style="mix-blend-mode:multiply" d="M95.6643 259.523H0V269.987H95.6643V259.523Z" fill="url(#paint0_linear)"/>
<path style="mix-blend-mode:multiply" opacity="0.2" d="M286 174.923L95.9387 269.961L75.0211 259.497L265.082 164.459L286 174.923Z" fill="url(#paint1_linear)"/>
<path d="M244.975 9.43197V33.4169L226.135 23.998V0.0130615L244.975 9.43197Z" fill="url(#paint2_linear)"/>
<path d="M244.975 9.43197L268.989 9.41891L249.182 0L226.135 0.0130637L244.975 9.43197Z" fill="#E7FCFF"/>
<path d="M203.911 174.923C216.44 168.665 226.631 153.381 226.631 140.853V53.4435C226.631 43.0579 235.071 30.3861 245.458 25.1998L246.909 24.4682V20.5491L226.095 10.0982L224.658 10.8167C212.129 17.0873 201.951 32.3718 201.951 44.8868V132.296C201.951 142.747 193.497 155.366 183.111 160.553V164.472L189.055 174.309L203.911 174.923Z" fill="url(#paint3_linear)"/>
<path d="M187.435 176.059L185.907 171.265L181.856 154.844C181.856 154.844 161.853 139.35 157.921 137.234L154.079 140.826C157.999 142.342 160.403 146.143 160.403 151.722V153.172C160.403 159.455 163.016 163.871 167.119 165.909L187.435 176.059Z" fill="url(#paint4_linear)"/>
<path d="M268.989 9.41891L244.975 33.4169V9.43198L268.989 9.41891Z" fill="white"/>
<path d="M157.921 137.234C153.779 135 147.978 135.222 141.563 138.436L140.126 139.154C127.596 145.425 117.405 160.696 117.405 173.224V174.661C117.405 185.112 108.952 197.719 98.5778 202.918L97.8461 203.284C85.3296 209.541 75.1386 224.826 75.1386 237.341V259.549L95.9386 270L97.5064 255.147L98.3296 241.116L103.216 229.738L114.975 217.327L125.741 211.37L134.56 201.742L139.289 190.246L141.576 173.59L149.742 160.291L161.5 150.585L172.933 148.247L177.897 147.254L157.921 137.234Z" fill="url(#paint5_linear)"/>
<path d="M99.8191 268.027L95.8995 269.961V247.753C95.8995 235.224 106.09 219.94 118.62 213.682L119.339 213.317C129.726 208.091 138.179 195.459 138.179 185.073V183.623C138.179 171.108 148.357 155.823 160.886 149.566L162.324 148.834C174.853 142.577 185.044 147.672 185.044 160.187V161.637C185.044 172.088 193.484 176.242 203.871 171.043C214.258 165.843 222.712 153.185 222.712 142.799V55.39C222.712 42.8619 232.902 27.5774 245.419 21.3199L246.869 20.6014V24.5205L245.419 25.2521C234.967 30.4775 226.592 43.1101 226.592 53.4957V140.905C226.592 153.433 216.401 168.717 203.871 174.975C191.342 181.232 181.164 176.151 181.164 163.622V162.185C181.164 151.735 172.711 147.58 162.324 152.767L160.886 153.485C150.434 158.711 142.046 171.356 142.046 181.742V183.179C142.046 195.707 131.868 210.991 119.339 217.249L118.62 217.615C108.233 222.84 99.7799 235.473 99.7799 245.858L99.8191 268.027Z" fill="white"/>
<defs>
<linearGradient id="paint0_linear" x1="0" y1="264.761" x2="95.6643" y2="264.761" gradientUnits="userSpaceOnUse">
<stop stop-color="white"/>
<stop offset="1" stop-color="#0BA4A4"/>
</linearGradient>
<linearGradient id="paint1_linear" x1="75.0211" y1="217.21" x2="286" y2="217.21" gradientUnits="userSpaceOnUse">
<stop stop-color="#0BA4A4"/>
<stop offset="1" stop-color="white"/>
</linearGradient>
<linearGradient id="paint2_linear" x1="225.9" y1="24.3899" x2="251.936" y2="3.69382" gradientUnits="userSpaceOnUse">
<stop stop-color="#62ABF0"/>
<stop offset="0.21" stop-color="#75B9F3"/>
<stop offset="0.64" stop-color="#A6DCF9"/>
<stop offset="1" stop-color="#D3FCFF"/>
</linearGradient>
<linearGradient id="paint3_linear" x1="8042.39" y1="18462.2" x2="17029.9" y2="14983.4" gradientUnits="userSpaceOnUse">
<stop stop-color="#62ABF0"/>
<stop offset="0.21" stop-color="#75B9F3"/>
<stop offset="0.64" stop-color="#A6DCF9"/>
<stop offset="1" stop-color="#D3FCFF"/>
</linearGradient>
<linearGradient id="paint4_linear" x1="151.401" y1="177.797" x2="177.515" y2="151.679" gradientUnits="userSpaceOnUse">
<stop stop-color="#D3FCFF"/>
<stop offset="0.36" stop-color="#A6DCF9"/>
<stop offset="0.79" stop-color="#75B9F3"/>
<stop offset="1" stop-color="#62ABF0"/>
</linearGradient>
<linearGradient id="paint5_linear" x1="5455.59" y1="26117.2" x2="16125.5" y2="17950.7" gradientUnits="userSpaceOnUse">
<stop stop-color="#62ABF0"/>
<stop offset="0.21" stop-color="#75B9F3"/>
<stop offset="0.64" stop-color="#A6DCF9"/>
<stop offset="1" stop-color="#D3FCFF"/>
</linearGradient>
</defs>
</svg>
